Genre:Crime 
Language:English
IMDb:http://www.imdb.com/title/tt1381508/
Source:1080p.BluRay.x264-7SinS
Subtitles:Romana


Format : MPEG-4
Format profile : Base Media
Codec ID : isom
File size : 2.40 GiB
Duration : 1h 40mn
Overall bit rate : 3 409 Kbps


Video
Format profile : High@L4.1
Format settings, CABAC : Yes
Format settings, ReFrames : 3 frames
Format settings, GOP : M=4, N=15
Codec ID : avc1
Codec ID/Info : Advanced Video Coding
Duration : 1h 40mn
Bit rate mode : Variable
Bit rate : 3 000 Kbps
Maximum bit rate : 20.2 Mbps
Width : 1 280 pixels
Height : 544 pixels
Display aspect ratio : 2.35:1
Frame rate mode : Constant
Frame rate : 25.000 fps
Color space : YUV
Chroma subsampling : 4:2:0
Bit depth : 8 bits
Scan type : Progressive
Bits/(Pixel*Frame) : 0.172
Stream size : 2.10 GiB (88%)
Writing library : x264


Audio
ID : 2
Format : AAC
Format/Info : Advanced Audio Codec
Format version : Version 4
Format profile : LC
Format settings, SBR : No
Codec ID : 40
Duration : 1h 40mn
Bit rate mode : Variable
Bit rate : 413 Kbps
Maximum bit rate : 572 Kbps
Channel(s) : 6 channels
Channel positions : Front: L C R, Side: L R, LFE
Sampling rate : 48.0 KHz
Stream size : 297 MiB (12%)



Plot:
Former undercover police officer Jack Adleth returns to London seeking those who tried to have him killed in Amsterdam.
 
http://www.pix2links.com/images/92931064869456824241.png 
http://www.pix2links.com/images/60048395638616388868.png 
http://www.pix2links.com/images/94489918237274219510.png 
http://www.pix2links.com/images/87114946537962768883.png 
http://www.pix2links.com/images/53662837726566604356.png


Greets:

INK,CRYS,IMAGINE,LKRG,FXG,3Li,FLAWL3SS,TA,iLLUSiON,ViSiON,DTRG SAFCuk009,LU,TheFalcon007,MYSTiC,PrisM,Noir,WBZ,LAP,Rx,Kingdom,SAFCuk009+Fabreezy,HDLiTE,TWiZTED,ExtraTorrentRG.ELEKTRI4KA,MAGNAT,CM8
And to all the other p2p grps past and present 